<svg width="925" height="1209" viewBox="0 0 925 1209" fill="none" xmlns="http://www.w3.org/2000/svg">
<g clip-path="url(#blueGradient)">
<rect width="925" height="1209" fill="url(#blueGradient)"/>
<g opacity="0.35" filter="url(#blueGradient)">
<ellipse cx="1100.5" cy="259.5" rx="384.5" ry="476.5" fill="#7C87FB"/>
</g>
<g opacity="0.35" filter="url(#blueGradient)">
<ellipse cx="-84" cy="781.5" rx="357" ry="438.5" fill="#FA7185"/>
</g>
<rect x="777.827" y="297" width="234.11" height="527.655" transform="rotate(30 777.827 297)" fill="url(#blueGradient)"/>
<rect x="349.436" y="-10" width="234.112" height="578.872" transform="rotate(30 349.436 -10)" fill="url(#blueGradient)"/>
<path d="M121 937V1046" stroke="url(#blueGradient)"/>
<path d="M142 1133L142 1209" stroke="url(#blueGradient)"/>
<path opacity="0.7" d="M50 857L50 942" stroke="url(#blueGradient)"/>
<path d="M209 1014L209 1086" stroke="url(#blueGradient)"/>
<path d="M184 894L184 966" stroke="url(#blueGradient)"/>
<path d="M78 1069L78 1122" stroke="url(#blueGradient)"/>
<path opacity="0.4" d="M175 1096L175 1140" stroke="url(#blueGradient)"/>
<path opacity="0.2" d="M56 978L56 1029" stroke="url(#blueGradient)"/>
<path opacity="0.7" d="M919 36L919 121" stroke="url(#blueGradient)"/>
<path d="M925 264L925 317" stroke="url(#blueGradient)"/>
<path opacity="0.2" d="M903 173L903 224" stroke="url(#blueGradient)"/>
</g>
<defs>
<filter id="filter0_f_9323_560" x="216" y="-717" width="1769" height="1953" filterUnits="userSpaceOnUse" color-interpolation-filters="sRGB">
<feFlood flood-opacity="0" result="BackgroundImageFix"/>
<feBlend mode="normal" in="SourceGraphic" in2="BackgroundImageFix" result="shape"/>
<feGaussianBlur stdDeviation="250" result="effect1_foregroundBlur_9323_560"/>
</filter>
<filter id="filter1_f_9323_560" x="-941" y="-157" width="1714" height="1877" filterUnits="userSpaceOnUse" color-interpolation-filters="sRGB">
<feFlood flood-opacity="0" result="BackgroundImageFix"/>
<feBlend mode="normal" in="SourceGraphic" in2="BackgroundImageFix" result="shape"/>
<feGaussianBlur stdDeviation="250" result="effect1_foregroundBlur_9323_560"/>
</filter>

<linearGradient id="blueGradient" x1="0" y1="0" x2="0" y2="1">
  <stop offset="0%" stop-color="#3B82F6"/>
  <stop offset="100%" stop-color="#1E3A8A"/>
</linearGradient>


<linearGradient id="blueGradient" x1="0" y1="0" x2="0" y2="1">
  <stop offset="0%" stop-color="#3B82F6"/>
  <stop offset="100%" stop-color="#1E3A8A"/>
</linearGradient>


<linearGradient id="blueGradient" x1="0" y1="0" x2="0" y2="1">
  <stop offset="0%" stop-color="#3B82F6"/>
  <stop offset="100%" stop-color="#1E3A8A"/>
</linearGradient>


<linearGradient id="blueGradient" x1="0" y1="0" x2="0" y2="1">
  <stop offset="0%" stop-color="#3B82F6"/>
  <stop offset="100%" stop-color="#1E3A8A"/>
</linearGradient>


<linearGradient id="blueGradient" x1="0" y1="0" x2="0" y2="1">
  <stop offset="0%" stop-color="#3B82F6"/>
  <stop offset="100%" stop-color="#1E3A8A"/>
</linearGradient>


<linearGradient id="blueGradient" x1="0" y1="0" x2="0" y2="1">
  <stop offset="0%" stop-color="#3B82F6"/>
  <stop offset="100%" stop-color="#1E3A8A"/>
</linearGradient>


<linearGradient id="blueGradient" x1="0" y1="0" x2="0" y2="1">
  <stop offset="0%" stop-color="#3B82F6"/>
  <stop offset="100%" stop-color="#1E3A8A"/>
</linearGradient>


<linearGradient id="blueGradient" x1="0" y1="0" x2="0" y2="1">
  <stop offset="0%" stop-color="#3B82F6"/>
  <stop offset="100%" stop-color="#1E3A8A"/>
</linearGradient>


<linearGradient id="blueGradient" x1="0" y1="0" x2="0" y2="1">
  <stop offset="0%" stop-color="#3B82F6"/>
  <stop offset="100%" stop-color="#1E3A8A"/>
</linearGradient>


<linearGradient id="blueGradient" x1="0" y1="0" x2="0" y2="1">
  <stop offset="0%" stop-color="#3B82F6"/>
  <stop offset="100%" stop-color="#1E3A8A"/>
</linearGradient>


<linearGradient id="blueGradient" x1="0" y1="0" x2="0" y2="1">
  <stop offset="0%" stop-color="#3B82F6"/>
  <stop offset="100%" stop-color="#1E3A8A"/>
</linearGradient>


<linearGradient id="blueGradient" x1="0" y1="0" x2="0" y2="1">
  <stop offset="0%" stop-color="#3B82F6"/>
  <stop offset="100%" stop-color="#1E3A8A"/>
</linearGradient>


<linearGradient id="blueGradient" x1="0" y1="0" x2="0" y2="1">
  <stop offset="0%" stop-color="#3B82F6"/>
  <stop offset="100%" stop-color="#1E3A8A"/>
</linearGradient>


<linearGradient id="blueGradient" x1="0" y1="0" x2="0" y2="1">
  <stop offset="0%" stop-color="#3B82F6"/>
  <stop offset="100%" stop-color="#1E3A8A"/>
</linearGradient>

<clipPath id="clip0_9323_560">
<rect width="925" height="1209" fill="white"/>
</clipPath>
</defs>
</svg>
